<?xml version="1.0" standalone="no"?>
<!DOCTYPE svg PUBLIC "-//W3C//DTD SVG 20010904//EN"
 "http://www.w3.org/TR/2001/REC-SVG-20010904/DTD/svg10.dtd">
<svg version="1.0" xmlns="http://www.w3.org/2000/svg"
 width="700.000000pt" height="700.000000pt" viewBox="0 0 700.000000 700.000000"
 preserveAspectRatio="xMidYMid meet">
<metadata>
Created by potrace 1.14, written by Peter Selinger 2001-2017
</metadata>
<g transform="translate(0.000000,700.000000) scale(0.100000,-0.100000)"
fill="#000000" stroke="none">
<path d="M627 6380 c-9 -4 -12 -637 -12 -2880 0 -1581 3 -2877 7 -2880 3 -3
707 -5 1565 -4 l1558 0 0 50 0 49 -1507 1 c-830 0 -1511 4 -1515 7 -3 4 -7
1254 -7 2778 -1 2454 1 2772 14 2778 20 8 5538 6 5547 -2 3 -4 7 -1254 7
-2778 1 -2454 -1 -2772 -14 -2778 -8 -3 -298 -6 -645 -5 l-630 1 -40 -31 c-60
-47 -80 -66 -69 -67 5 0 343 -1 752 -2 653 -2 742 0 743 13 4 62 3 5743 -1
5748 -6 8 -5735 10 -5753 2z"/>
<path d="M1812 5380 c-6 -4 -9 -3887 -3 -3947 1 -9 18 -12 54 -10 l52 2 2 889
c1 488 3 890 5 892 2 1 170 4 373 5 397 2 485 8 640 44 368 85 649 340 768
696 75 222 81 497 16 738 -103 383 -421 627 -899 687 -65 8 -997 12 -1008 4z
m1023 -115 c178 -26 363 -100 486 -193 230 -175 340 -424 333 -753 -9 -440
-271 -809 -668 -939 -39 -13 -77 -24 -85 -25 -17 -1 -64 -10 -116 -21 -16 -4
-218 -9 -447 -11 l-418 -5 0 316 c-1 174 -1 561 -1 861 0 300 0 599 1 664 l0
119 433 -3 c237 -1 455 -6 482 -10z"/>
<path d="M5089 5376 c0 -6 -2 -816 -3 -1801 -2 -984 -6 -1812 -10 -1840 -40
-270 -112 -458 -239 -627 -68 -91 -183 -200 -261 -246 -115 -70 -289 -129
-394 -133 -57 -3 -62 -7 -62 -59 0 -29 5 -50 13 -52 20 -7 186 20 262 43 197
59 381 183 506 339 70 87 88 116 139 219 53 107 97 234 116 336 2 11 6 31 9
45 7 33 14 81 22 160 3 36 6 866 7 1845 l0 1779 -52 2 c-31 0 -52 -4 -53 -10z"/>
</g>
</svg>
